<?xml version="1.0" encoding="UTF-8" standalone="no"?>
<!DOCTYPE svg PUBLIC "-//W3C//DTD SVG 1.1//EN"
 "http://www.w3.org/Graphics/SVG/1.1/DTD/svg11.dtd">
<!-- Generated by graphviz version 2.40.1 (20161225.0304)
 -->
<!-- Title: dependencies Pages: 1 -->
<svg width="1186pt" height="284pt"
 viewBox="0.00 0.00 1186.00 284.00" xmlns="http://www.w3.org/2000/svg" xmlns:xlink="http://www.w3.org/1999/xlink">
<g id="graph0" class="graph" transform="scale(1 1) rotate(0) translate(4 280)">
<title>dependencies</title>
<polygon fill="#ffffff" stroke="transparent" points="-4,4 -4,-280 1182,-280 1182,4 -4,4"/>
<text text-anchor="start" x="568.0091" y="-42.4" font-family="sans-serif" font-weight="bold" font-size="14.00" fill="#000000">Legend</text>
<polygon fill="#ffffb3" stroke="transparent" points="355,-10 355,-30 375,-30 375,-10 355,-10"/>
<text text-anchor="start" x="378.629" y="-15.4" font-family="sans-serif" font-size="14.00" fill="#000000"> &#160;Declarations</text>
<polygon fill="#8dd3c7" stroke="transparent" points="468,-10 468,-30 488,-30 488,-10 468,-10"/>
<text text-anchor="start" x="491.7251" y="-15.4" font-family="sans-serif" font-size="14.00" fill="#000000"> &#160;Module</text>
<polygon fill="#80b1d3" stroke="transparent" points="554,-10 554,-30 574,-30 574,-10 554,-10"/>
<text text-anchor="start" x="577.7812" y="-15.4" font-family="sans-serif" font-size="14.00" fill="#000000"> &#160;Bootstrap</text>
<polygon fill="#fdb462" stroke="transparent" points="651,-10 651,-30 671,-30 671,-10 651,-10"/>
<text text-anchor="start" x="674.6732" y="-15.4" font-family="sans-serif" font-size="14.00" fill="#000000"> &#160;Providers</text>
<polygon fill="#fb8072" stroke="transparent" points="747,-10 747,-30 767,-30 767,-10 747,-10"/>
<text text-anchor="start" x="770.7258" y="-15.4" font-family="sans-serif" font-size="14.00" fill="#000000"> &#160;Exports</text>
<g id="clust1" class="cluster">
<title>cluster_AppModule</title>
<polygon fill="none" stroke="#000000" stroke-dasharray="1,5" points="8,-70 8,-268 1170,-268 1170,-70 8,-70"/>
</g>
<g id="clust2" class="cluster">
<title>cluster_AppModule_declarations</title>
<polygon fill="none" stroke="#000000" points="168,-78 168,-130 1162,-130 1162,-78 168,-78"/>
</g>
<g id="clust9" class="cluster">
<title>cluster_AppModule_imports</title>
<polygon fill="none" stroke="#000000" points="16,-78 16,-130 160,-130 160,-78 16,-78"/>
</g>
<g id="clust11" class="cluster">
<title>cluster_AppModule_bootstrap</title>
<polygon fill="none" stroke="#000000" points="568,-208 568,-260 692,-260 692,-208 568,-208"/>
</g>
<!-- AppComponent -->
<g id="node1" class="node">
<title>AppComponent</title>
<polygon fill="#ffffb3" stroke="#000000" points="1153.9399,-122 1048.0601,-122 1048.0601,-86 1153.9399,-86 1153.9399,-122"/>
<text text-anchor="middle" x="1101" y="-99.8" font-family="Times,serif" font-size="14.00" fill="#000000">AppComponent</text>
</g>
<!-- AppModule -->
<g id="node7" class="node">
<title>AppModule</title>
<polygon fill="#8dd3c7" stroke="#000000" points="671.6571,-187 668.6571,-191 647.6571,-191 644.6571,-187 588.3429,-187 588.3429,-151 671.6571,-151 671.6571,-187"/>
<text text-anchor="middle" x="630" y="-164.8" font-family="Times,serif" font-size="14.00" fill="#000000">AppModule</text>
</g>
<!-- AppComponent&#45;&gt;AppModule -->
<g id="edge1" class="edge">
<title>AppComponent&#45;&gt;AppModule</title>
<path fill="none" stroke="#000000" d="M1101,-122.2921C1101,-144.2057 1101,-178 1101,-178 1101,-178 681.7981,-178 681.7981,-178"/>
<polygon fill="#000000" stroke="#000000" points="681.7981,-174.5001 671.7981,-178 681.7981,-181.5001 681.7981,-174.5001"/>
</g>
<!-- ButtonComponent -->
<g id="node2" class="node">
<title>ButtonComponent</title>
<polygon fill="#ffffb3" stroke="#000000" points="1030.9511,-122 911.0489,-122 911.0489,-86 1030.9511,-86 1030.9511,-122"/>
<text text-anchor="middle" x="971" y="-99.8" font-family="Times,serif" font-size="14.00" fill="#000000">ButtonComponent</text>
</g>
<!-- ButtonComponent&#45;&gt;AppModule -->
<g id="edge2" class="edge">
<title>ButtonComponent&#45;&gt;AppModule</title>
<path fill="none" stroke="#000000" d="M971,-122.1061C971,-141.3391 971,-169 971,-169 971,-169 681.8133,-169 681.8133,-169"/>
<polygon fill="#000000" stroke="#000000" points="681.8133,-165.5001 671.8133,-169 681.8133,-172.5001 681.8133,-165.5001"/>
</g>
<!-- InputSearchBarComponent -->
<g id="node3" class="node">
<title>InputSearchBarComponent</title>
<polygon fill="#ffffb3" stroke="#000000" points="893.6825,-122 724.3175,-122 724.3175,-86 893.6825,-86 893.6825,-122"/>
<text text-anchor="middle" x="809" y="-99.8" font-family="Times,serif" font-size="14.00" fill="#000000">InputSearchBarComponent</text>
</g>
<!-- InputSearchBarComponent&#45;&gt;AppModule -->
<g id="edge3" class="edge">
<title>InputSearchBarComponent&#45;&gt;AppModule</title>
<path fill="none" stroke="#000000" d="M809,-122.027C809,-138.3976 809,-160 809,-160 809,-160 681.9675,-160 681.9675,-160"/>
<polygon fill="#000000" stroke="#000000" points="681.9676,-156.5001 671.9675,-160 681.9675,-163.5001 681.9676,-156.5001"/>
</g>
<!-- NewsReaderComponent -->
<g id="node4" class="node">
<title>NewsReaderComponent</title>
<polygon fill="#ffffb3" stroke="#000000" points="706.3459,-122 553.6541,-122 553.6541,-86 706.3459,-86 706.3459,-122"/>
<text text-anchor="middle" x="630" y="-99.8" font-family="Times,serif" font-size="14.00" fill="#000000">NewsReaderComponent</text>
</g>
<!-- NewsReaderComponent&#45;&gt;AppModule -->
<g id="edge4" class="edge">
<title>NewsReaderComponent&#45;&gt;AppModule</title>
<path fill="none" stroke="#000000" d="M630,-122.1061C630,-122.1061 630,-140.991 630,-140.991"/>
<polygon fill="#000000" stroke="#000000" points="626.5001,-140.9909 630,-150.991 633.5001,-140.991 626.5001,-140.9909"/>
</g>
<!-- SearchResultItemComponent -->
<g id="node5" class="node">
<title>SearchResultItemComponent</title>
<polygon fill="#ffffb3" stroke="#000000" points="535.3529,-122 354.6471,-122 354.6471,-86 535.3529,-86 535.3529,-122"/>
<text text-anchor="middle" x="445" y="-99.8" font-family="Times,serif" font-size="14.00" fill="#000000">SearchResultItemComponent</text>
</g>
<!-- SearchResultItemComponent&#45;&gt;AppModule -->
<g id="edge5" class="edge">
<title>SearchResultItemComponent&#45;&gt;AppModule</title>
<path fill="none" stroke="#000000" d="M445,-122.027C445,-138.3976 445,-160 445,-160 445,-160 578.0206,-160 578.0206,-160"/>
<polygon fill="#000000" stroke="#000000" points="578.0207,-163.5001 588.0206,-160 578.0206,-156.5001 578.0207,-163.5001"/>
</g>
<!-- SearchResultsComponent -->
<g id="node6" class="node">
<title>SearchResultsComponent</title>
<polygon fill="#ffffb3" stroke="#000000" points="336.1414,-122 175.8586,-122 175.8586,-86 336.1414,-86 336.1414,-122"/>
<text text-anchor="middle" x="256" y="-99.8" font-family="Times,serif" font-size="14.00" fill="#000000">SearchResultsComponent</text>
</g>
<!-- SearchResultsComponent&#45;&gt;AppModule -->
<g id="edge6" class="edge">
<title>SearchResultsComponent&#45;&gt;AppModule</title>
<path fill="none" stroke="#000000" d="M256,-122.1061C256,-141.3391 256,-169 256,-169 256,-169 578.1861,-169 578.1861,-169"/>
<polygon fill="#000000" stroke="#000000" points="578.1861,-172.5001 588.1861,-169 578.1861,-165.5001 578.1861,-172.5001"/>
</g>
<!-- AppComponent  -->
<g id="node9" class="node">
<title>AppComponent </title>
<polygon fill="#80b1d3" stroke="#000000" points="684.439,-252 575.561,-252 575.561,-216 684.439,-216 684.439,-252"/>
<text text-anchor="middle" x="630" y="-229.8" font-family="Times,serif" font-size="14.00" fill="#000000">AppComponent </text>
</g>
<!-- AppModule&#45;&gt;AppComponent  -->
<g id="edge8" class="edge">
<title>AppModule&#45;&gt;AppComponent </title>
<path fill="none" stroke="#000000" stroke-dasharray="1,5" d="M630,-187.1061C630,-187.1061 630,-205.991 630,-205.991"/>
<polygon fill="#000000" stroke="#000000" points="626.5001,-205.9909 630,-215.991 633.5001,-205.991 626.5001,-205.9909"/>
</g>
<!-- AppRoutingModule -->
<g id="node8" class="node">
<title>AppRoutingModule</title>
<polygon fill="#8dd3c7" stroke="#000000" points="152.2744,-122 149.2744,-126 128.2744,-126 125.2744,-122 23.7256,-122 23.7256,-86 152.2744,-86 152.2744,-122"/>
<text text-anchor="middle" x="88" y="-99.8" font-family="Times,serif" font-size="14.00" fill="#000000">AppRoutingModule</text>
</g>
<!-- AppRoutingModule&#45;&gt;AppModule -->
<g id="edge7" class="edge">
<title>AppRoutingModule&#45;&gt;AppModule</title>
<path fill="none" stroke="#000000" d="M88,-122.2921C88,-144.2057 88,-178 88,-178 88,-178 577.9212,-178 577.9212,-178"/>
<polygon fill="#000000" stroke="#000000" points="577.9212,-181.5001 587.9212,-178 577.9211,-174.5001 577.9212,-181.5001"/>
</g>
</g>
</svg>
